<?xml version="1.0" standalone="no"?>
<!DOCTYPE svg PUBLIC "-//W3C//DTD SVG 20010904//EN"
 "http://www.w3.org/TR/2001/REC-SVG-20010904/DTD/svg10.dtd">
<svg version="1.0" xmlns="http://www.w3.org/2000/svg"
 width="1024.000000pt" height="1024.000000pt" viewBox="0 0 1024.000000 1024.000000"
 preserveAspectRatio="xMidYMid meet">
<metadata>
Created by potrace 1.14, written by Peter Selinger 2001-2017
</metadata>
<g transform="translate(0.000000,1024.000000) scale(0.100000,-0.100000)"
fill="#000000" stroke="none">
<path d="M1627 9804 c-1 -1 -24 -4 -52 -8 -459 -55 -830 -461 -849 -927 -1
-15 -3 -30 -6 -33 -3 -2 -70 -6 -149 -7 -156 -3 -231 -11 -301 -34 -95 -32
-165 -105 -188 -195 -9 -33 -11 -305 -9 -1000 l3 -955 22 -79 c88 -304 301
-531 587 -625 87 -28 185 -46 232 -43 18 1 36 -17 85 -91 74 -110 98 -137 251
-290 l119 -117 3 -363 c2 -299 5 -374 19 -430 44 -180 114 -306 236 -427 106
-107 215 -172 357 -212 64 -18 103 -22 213 -22 160 0 222 14 358 81 51 25 97
42 101 37 4 -5 13 -27 20 -49 37 -108 241 -496 277 -526 8 -6 14 -16 14 -21 0
-16 118 -175 221 -298 257 -306 574 -573 889 -749 41 -23 82 -46 90 -51 140
-85 546 -244 725 -285 11 -2 47 -11 81 -19 34 -8 73 -17 88 -20 14 -3 34 -7
44 -10 9 -3 35 -7 57 -10 22 -3 56 -8 75 -10 101 -15 174 -22 300 -31 25 -2
271 -4 548 -4 l502 -1 0 -652 0 -653 337 1 c325 2 580 9 633 19 14 2 45 6 70
9 25 3 54 8 65 10 11 2 42 7 68 10 129 19 353 81 522 144 289 109 602 296 855
510 66 57 267 255 330 327 75 85 228 299 296 412 205 345 346 753 389 1128 3
28 8 68 11 90 3 22 7 239 9 483 l3 442 -86 0 c-48 1 -352 1 -675 1 -554 0
-588 1 -576 17 7 9 18 22 24 27 20 19 181 220 256 320 120 159 261 372 347
525 11 19 36 64 57 100 193 339 424 941 509 1330 31 140 48 221 52 250 3 19 7
42 9 50 6 20 22 132 40 270 14 114 21 186 31 310 12 159 19 986 10 1145 -10
161 -30 260 -82 406 -66 183 -179 346 -379 544 -100 100 -146 138 -201 167
-122 64 -203 83 -336 81 -91 -2 -176 -25 -278 -74 l-85 -41 -1157 -1156 c-637
-636 -1159 -1154 -1162 -1152 -2 3 -14 23 -26 45 -147 264 -291 477 -501 740
-168 211 -316 372 -644 701 -330 331 -398 389 -552 468 -125 63 -227 96 -408
132 -54 10 -439 13 -495 3 -141 -25 -269 -96 -366 -202 -83 -90 -131 -185
-154 -300 -17 -85 -19 -163 -19 -1087 0 -547 0 -1003 0 -1013 -1 -17 -8 -18
-88 -11 -49 4 -99 8 -113 9 -14 2 -47 3 -75 4 l-50 1 0 853 0 852 -27 55 c-52
105 -148 180 -251 195 l-47 7 0 339 c0 202 -4 358 -11 388 -21 99 -122 204
-222 233 -29 8 -164 12 -430 12 -214 1 -389 1 -390 0z"/>
</g>
</svg>
